REM DIRINDEX 1\2,1\3
REM DIRNAME cjc039,folder01,folder02
TITLE ""
FILE "1681-1700.mp3" MP3
  TRACK 01 AUDIO
    TITLE "0:"
    INDEX 01 00:00:00
  TRACK 02 AUDIO
    TITLE "2:cjc039_2361"
    INDEX 01 00:00:27
  TRACK 03 AUDIO
    TITLE "0:"
    INDEX 01 00:01:28
  TRACK 04 AUDIO
    TITLE "3:cjc039_2362"
    INDEX 01 00:02:08
  TRACK 05 AUDIO
    TITLE "0:"
    INDEX 01 00:05:52
  TRACK 06 AUDIO
    TITLE "2:cjc039_2363"
    INDEX 01 00:07:23
  TRACK 07 AUDIO
    TITLE "0:"
    INDEX 01 00:08:44
  TRACK 08 AUDIO
    TITLE "3:cjc039_2364"
    INDEX 01 00:09:24
  TRACK 09 AUDIO
    TITLE "0:"
    INDEX 01 00:12:61
  TRACK 10 AUDIO
    TITLE "2:cjc039_2365"
    INDEX 01 00:14:37
  TRACK 11 AUDIO
    TITLE "0:"
    INDEX 01 00:15:44
  TRACK 12 AUDIO
    TITLE "3:cjc039_2366"
    INDEX 01 00:16:20
  TRACK 13 AUDIO
    TITLE "0:"
    INDEX 01 00:19:71
  TRACK 14 AUDIO
    TITLE "2:cjc039_2367"
    INDEX 01 00:21:51
  TRACK 15 AUDIO
    TITLE "0:"
    INDEX 01 00:22:74
  TRACK 16 AUDIO
    TITLE "3:cjc039_2368"
    INDEX 01 00:23:50
  TRACK 17 AUDIO
    TITLE "0:"
    INDEX 01 00:28:19
  TRACK 18 AUDIO
    TITLE "2:cjc039_2369"
    INDEX 01 00:30:03
  TRACK 19 AUDIO
    TITLE "0:"
    INDEX 01 00:31:12
  TRACK 20 AUDIO
    TITLE "3:cjc039_2370"
    INDEX 01 00:31:63
  TRACK 21 AUDIO
    TITLE "0:"
    INDEX 01 00:35:55
  TRACK 22 AUDIO
    TITLE "2:cjc039_2371"
    INDEX 01 00:37:32
  TRACK 23 AUDIO
    TITLE "0:"
    INDEX 01 00:38:47
  TRACK 24 AUDIO
    TITLE "3:cjc039_2372"
    INDEX 01 00:39:23
  TRACK 25 AUDIO
    TITLE "0:"
    INDEX 01 00:43:44
  TRACK 26 AUDIO
    TITLE "2:cjc039_2373"
    INDEX 01 00:45:24
  TRACK 27 AUDIO
    TITLE "0:"
    INDEX 01 00:46:37
  TRACK 28 AUDIO
    TITLE "3:cjc039_2374"
    INDEX 01 00:47:17
  TRACK 29 AUDIO
    TITLE "0:"
    INDEX 01 00:50:25
  TRACK 30 AUDIO
    TITLE "2:cjc039_2375"
    INDEX 01 00:52:04
  TRACK 31 AUDIO
    TITLE "0:"
    INDEX 01 00:53:37
  TRACK 32 AUDIO
    TITLE "3:cjc039_2376"
    INDEX 01 00:54:13
  TRACK 33 AUDIO
    TITLE "0:"
    INDEX 01 00:57:62
  TRACK 34 AUDIO
    TITLE "2:cjc039_2377"
    INDEX 01 00:59:41
  TRACK 35 AUDIO
    TITLE "0:"
    INDEX 01 01:00:51
  TRACK 36 AUDIO
    TITLE "3:cjc039_2378"
    INDEX 01 01:01:33
  TRACK 37 AUDIO
    TITLE "0:"
    INDEX 01 01:04:68
  TRACK 38 AUDIO
    TITLE "2:cjc039_2379"
    INDEX 01 01:06:45
  TRACK 39 AUDIO
    TITLE "0:"
    INDEX 01 01:07:59
  TRACK 40 AUDIO
    TITLE "3:cjc039_2380"
    INDEX 01 01:08:38
  TRACK 41 AUDIO
    TITLE "0:"
    INDEX 01 01:12:44
  TRACK 42 AUDIO
    TITLE "2:cjc039_2381"
    INDEX 01 01:14:17
  TRACK 43 AUDIO
    TITLE "0:"
    INDEX 01 01:15:35
  TRACK 44 AUDIO
    TITLE "3:cjc039_2382"
    INDEX 01 01:16:09
  TRACK 45 AUDIO
    TITLE "0:"
    INDEX 01 01:20:44
  TRACK 46 AUDIO
    TITLE "2:cjc039_2383"
    INDEX 01 01:22:25
  TRACK 47 AUDIO
    TITLE "0:"
    INDEX 01 01:23:62
  TRACK 48 AUDIO
    TITLE "3:cjc039_2384"
    INDEX 01 01:24:41
  TRACK 49 AUDIO
    TITLE "0:"
    INDEX 01 01:28:71
  TRACK 50 AUDIO
    TITLE "2:cjc039_2385"
    INDEX 01 01:30:48
  TRACK 51 AUDIO
    TITLE "0:"
    INDEX 01 01:31:47
  TRACK 52 AUDIO
    TITLE "3:cjc039_2386"
    INDEX 01 01:32:27
  TRACK 53 AUDIO
    TITLE "0:"
    INDEX 01 01:35:57
  TRACK 54 AUDIO
    TITLE "2:cjc039_2387"
    INDEX 01 01:37:36
  TRACK 55 AUDIO
    TITLE "0:"
    INDEX 01 01:38:47
  TRACK 56 AUDIO
    TITLE "3:cjc039_2388"
    INDEX 01 01:39:31
  TRACK 57 AUDIO
    TITLE "0:"
    INDEX 01 01:43:35
  TRACK 58 AUDIO
    TITLE "2:cjc039_2389"
    INDEX 01 01:45:10
  TRACK 59 AUDIO
    TITLE "0:"
    INDEX 01 01:46:08
  TRACK 60 AUDIO
    TITLE "3:cjc039_2390"
    INDEX 01 01:46:61
  TRACK 61 AUDIO
    TITLE "0:"
    INDEX 01 01:49:26
  TRACK 62 AUDIO
    TITLE "2:cjc039_2391"
    INDEX 01 01:51:07
  TRACK 63 AUDIO
    TITLE "0:"
    INDEX 01 01:52:20
  TRACK 64 AUDIO
    TITLE "3:cjc039_2392"
    INDEX 01 01:52:71
  TRACK 65 AUDIO
    TITLE "0:"
    INDEX 01 01:57:21
  TRACK 66 AUDIO
    TITLE "2:cjc039_2393"
    INDEX 01 01:58:72
  TRACK 67 AUDIO
    TITLE "0:"
    INDEX 01 02:00:16
  TRACK 68 AUDIO
    TITLE "3:cjc039_2394"
    INDEX 01 02:00:67
  TRACK 69 AUDIO
    TITLE "0:"
    INDEX 01 02:04:00
  TRACK 70 AUDIO
    TITLE "2:cjc039_2395"
    INDEX 01 02:05:54
  TRACK 71 AUDIO
    TITLE "0:"
    INDEX 01 02:07:16
  TRACK 72 AUDIO
    TITLE "3:cjc039_2396"
    INDEX 01 02:07:65
  TRACK 73 AUDIO
    TITLE "0:"
    INDEX 01 02:11:41
  TRACK 74 AUDIO
    TITLE "2:cjc039_2397"
    INDEX 01 02:13:20
  TRACK 75 AUDIO
    TITLE "0:"
    INDEX 01 02:14:10
  TRACK 76 AUDIO
    TITLE "3:cjc039_2398"
    INDEX 01 02:14:73
  TRACK 77 AUDIO
    TITLE "0:"
    INDEX 01 02:19:03
  TRACK 78 AUDIO
    TITLE "2:cjc039_2399"
    INDEX 01 02:20:60
  TRACK 79 AUDIO
    TITLE "0:"
    INDEX 01 02:22:27
  TRACK 80 AUDIO
    TITLE "3:cjc039_2400"
    INDEX 01 02:23:07
  TRACK 81 AUDIO
    TITLE "0:"
    INDEX 01 02:27:14
